<svg width="29" height="30" viewBox="0 0 29 30" fill="none" xmlns="http://www.w3.org/2000/svg">
<g id="Group 4">
<ellipse id="Circle" cx="14.5" cy="15" rx="13.5" ry="14" stroke="black" stroke-width="1.5"/>
<path id="Person" d="M14.5 4.25C17.9518 4.25 20.75 7.04822 20.75 10.5C20.75 13.2857 18.9269 15.6441 16.4092 16.4512C18.1504 16.8185 19.7636 17.6815 21.041 18.959C22.7757 20.6937 23.75 23.0467 23.75 25.5H22.25C22.25 23.4446 21.4339 21.4729 19.9805 20.0195C18.5271 18.5661 16.5554 17.75 14.5 17.75C12.4446 17.75 10.4729 18.5661 9.01953 20.0195C7.56612 21.4729 6.75 23.4446 6.75 25.5H5.25C5.25 23.0467 6.22427 20.6937 7.95898 18.959C9.23621 17.6818 10.849 16.8186 12.5898 16.4512C10.0726 15.6438 8.25 13.2854 8.25 10.5C8.25 7.04822 11.0482 4.25 14.5 4.25ZM14.5 5.75C11.8766 5.75 9.75 7.87665 9.75 10.5C9.75 13.1234 11.8766 15.25 14.5 15.25C17.1234 15.25 19.25 13.1234 19.25 10.5C19.25 7.87665 17.1234 5.75 14.5 5.75Z" fill="black"/>
<path id="Close" d="M20.4091 7.46985C20.702 7.17717 21.1768 7.17703 21.4696 7.46985C21.7622 7.76268 21.7622 8.23755 21.4696 8.53039L15.5604 14.4396L22.5302 21.4093C22.8229 21.7022 22.823 22.177 22.5302 22.4698C22.2373 22.7626 21.7625 22.7625 21.4696 22.4698L14.4999 15.5001L7.53016 22.4698C7.23732 22.7626 6.76249 22.7625 6.46961 22.4698C6.17676 22.177 6.17683 21.7022 6.46961 21.4093L13.4393 14.4396L7.53016 8.53039C7.23744 8.23752 7.23743 7.7627 7.53016 7.46985C7.82301 7.177 8.2978 7.17709 8.59071 7.46985L14.4999 13.379L20.4091 7.46985Z" fill="black"/>
</g>
</svg>
